<svg width="22" height="25" viewBox="0 0 22 25" fill="none" xmlns="http://www.w3.org/2000/svg">
<path fill-rule="evenodd" clip-rule="evenodd" d="M17.9688 25C18.6198 25 19.1732 24.7721 19.6289 24.3164C20.0846 23.8607 20.3125 23.3073 20.3125 22.6562V4.6875H21.582C21.6471 4.6875 21.7122 4.65495 21.7773 4.58984C21.8424 4.52474 21.875 4.45964 21.875 4.39453V4.29688C21.875 3.97135 21.7611 3.69466 21.5332 3.4668C21.3053 3.23893 21.0286 3.125 20.7031 3.125H16.4062L14.7461 0.927734C14.2904 0.309245 13.6719 0 12.8906 0H8.98438C8.20312 0 7.58464 0.309245 7.12891 0.927734L5.46875 3.125H1.17188C0.846354 3.125 0.569661 3.23893 0.341797 3.4668C0.113932 3.69466 0 3.97135 0 4.29688V4.39453C0 4.45964 0.0325521 4.52474 0.0976562 4.58984C0.16276 4.65495 0.227865 4.6875 0.292969 4.6875H1.5625V22.6562C1.5625 23.3073 1.79036 23.8607 2.24609 24.3164C2.70182 24.7721 3.25521 25 3.90625 25H17.9688ZM14.4531 3.12501H7.42188L8.34961 1.85548C8.51237 1.66016 8.72396 1.56251 8.98438 1.56251H12.8906C13.151 1.56251 13.3626 1.66016 13.5254 1.85548L14.4531 3.12501ZM17.9688 23.4375H3.90625C3.67839 23.4375 3.49121 23.3643 3.34473 23.2178C3.19824 23.0713 3.125 22.8841 3.125 22.6562V4.68749H18.75V22.6562C18.75 22.8841 18.6768 23.0713 18.5303 23.2178C18.3838 23.3643 18.1966 23.4375 17.9688 23.4375ZM11.1328 21.0938C11.2956 21.0938 11.4339 21.0368 11.5479 20.9229C11.6618 20.8089 11.7188 20.6706 11.7188 20.5078V7.61719C11.7188 7.45443 11.6618 7.31609 11.5479 7.20215C11.4339 7.08822 11.2956 7.03126 11.1328 7.03126H10.7422C10.5794 7.03126 10.4411 7.08822 10.3271 7.20215C10.2132 7.31609 10.1562 7.45443 10.1562 7.61719V20.5078C10.1562 20.6706 10.2132 20.8089 10.3271 20.9229C10.4411 21.0368 10.5794 21.0938 10.7422 21.0938H11.1328ZM7.22656 21.0938C7.38932 21.0938 7.52767 21.0368 7.6416 20.9229C7.75553 20.8089 7.8125 20.6706 7.8125 20.5078V7.61719C7.8125 7.45443 7.75553 7.31609 7.6416 7.20215C7.52767 7.08822 7.38932 7.03126 7.22656 7.03126H6.83594C6.67318 7.03126 6.53483 7.08822 6.4209 7.20215C6.30697 7.31609 6.25 7.45443 6.25 7.61719V20.5078C6.25 20.6706 6.30697 20.8089 6.4209 20.9229C6.53483 21.0368 6.67318 21.0938 6.83594 21.0938H7.22656ZM15.0391 21.0938C15.2018 21.0938 15.3402 21.0368 15.4541 20.9229C15.568 20.8089 15.625 20.6706 15.625 20.5078V7.61719C15.625 7.45443 15.568 7.31609 15.4541 7.20215C15.3402 7.08822 15.2018 7.03126 15.0391 7.03126H14.6484C14.4857 7.03126 14.3473 7.08822 14.2334 7.20215C14.1195 7.31609 14.0625 7.45443 14.0625 7.61719V20.5078C14.0625 20.6706 14.1195 20.8089 14.2334 20.9229C14.3473 21.0368 14.4857 21.0938 14.6484 21.0938H15.0391Z" fill="white"/>
</svg>
